<svg viewBox="0 0 294 70" fill="none" xmlns="http://www.w3.org/2000/svg">
  <path d="M175.631 69.014c-.658 0-1.217-.197-1.677-.591-.394-.46-.592-1.02-.592-1.677V2.367c0-.723.198-1.281.592-1.676.46-.46 1.019-.69 1.677-.69h4.931c1.052 0 1.906.526 2.564 1.577l20.809 39.831 21.007-39.83c.132-.395.395-.756.789-1.085.46-.329 1.019-.493 1.677-.493h4.832c.723 0 1.282.23 1.677.69.46.395.69.953.69 1.676v64.38c0 .658-.23 1.216-.69 1.677-.46.394-1.019.591-1.677.591h-4.832c-.658 0-1.217-.197-1.677-.591-.394-.46-.592-1.02-.592-1.677V18.24l-16.47 32.141c-.657 1.38-1.709 2.07-3.156 2.07h-3.057c-1.446 0-2.498-.69-3.156-2.07l-16.569-32.14v48.507c0 .657-.23 1.215-.69 1.675-.394.395-.92.592-1.578.592h-4.832z" fill="#0A0B0D"/>
  <path fill-rule="evenodd" clip-rule="evenodd" d="M254.622 63.789c4.077 4.14 9.501 6.211 16.273 6.211 4.208 0 7.923-.723 11.144-2.169 3.288-1.512 5.819-3.286 7.594-5.324 1.841-2.038 2.762-3.78 2.762-5.225 0-.592-.197-1.052-.592-1.38-.394-.33-.888-.494-1.479-.494h-4.833c-.789 0-1.348.099-1.676.296-.263.132-.691.592-1.283 1.38-.92 1.315-2.367 2.597-4.339 3.846-1.907 1.183-4.372 1.774-7.397 1.774-3.945 0-7.133-1.479-9.566-4.436-2.367-3.024-3.649-6.672-3.846-10.944v-.887h34.123c.658 0 1.184-.198 1.578-.592.46-.46.69-1.019.69-1.676v-1.676c0-7.887-2.005-14.132-6.016-18.732-4.01-4.667-9.665-7-16.963-7-6.64 0-11.999 2.103-16.075 6.31-4.011 4.206-6.246 9.859-6.707 16.957l-.098 3.254.098 3.352c.395 7.23 2.597 12.948 6.608 17.155zm29.784-24.451v.296h-27.022v-.296c0-4.535 1.183-8.216 3.55-11.042 2.433-2.892 5.72-4.338 9.862-4.338s7.43 1.446 9.863 4.338c2.498 2.826 3.747 6.507 3.747 11.042z" fill="#0A0B0D"/>
  <path d="M15.039 38.617c0 4.052 3.295 7.35 7.344 7.35 4.05 0 7.344-3.298 7.344-7.35 0-4.053-3.295-7.35-7.344-7.35-4.05 0-7.344 3.297-7.344 7.35z" fill="#61B584"/>
  <path fill-rule="evenodd" clip-rule="evenodd" d="M2.268 70c-.657 0-1.216-.2-1.676-.6C.197 68.933 0 68.367 0 67.7V2.4C0 1.667.197 1.1.592.7 1.052.233 1.61 0 2.268 0h22.389c9.928 0 17.095 2.267 21.5 6.8 4.405 4.467 6.706 11.233 6.904 20.3.065 1.933.098 4.533.098 7.8 0 3.267-.033 5.9-.098 7.9-.198 6.333-1.25 11.5-3.156 15.5-1.841 3.933-4.767 6.867-8.778 8.8-4.01 1.933-9.337 2.9-15.977 2.9H2.268zm16.85-20.767c-3.926 0-7.395 1.993-9.453 5.02V8.5h14.498c6.707 0 11.54 1.533 14.498 4.6 2.959 3 4.504 7.8 4.636 14.4.131 3.867.197 6.333.197 7.4 0 1-.066 3.5-.197 7.5-.132 4.667-.822 8.4-2.071 11.2-.95 2.194-2.388 3.916-4.313 5.165-.907-5.402-5.615-9.532-11.266-9.532H19.12zM68.26 63.789C72.335 67.929 77.76 70 84.531 70c4.208 0 7.923-.723 11.144-2.169 3.288-1.512 5.819-3.286 7.594-5.324 1.841-2.038 2.762-3.78 2.762-5.225 0-.592-.197-1.052-.592-1.38-.394-.33-.888-.494-1.479-.494h-4.833c-.789 0-1.348.099-1.676.296-.263.132-.69.592-1.282 1.38-.921 1.315-2.367 2.597-4.34 3.846-1.907 1.183-4.372 1.774-7.397 1.774-3.945 0-7.133-1.479-9.566-4.436-2.367-3.024-3.65-6.672-3.846-10.944v-.887h34.123c.658 0 1.184-.198 1.578-.592.46-.46.691-1.019.691-1.676v-1.676c0-7.887-2.006-14.132-6.016-18.732-4.011-4.667-9.666-7-16.964-7-6.64 0-11.999 2.103-16.075 6.31-4.01 4.206-6.246 9.859-6.707 16.957l-.098 3.254.099 3.352c.394 7.23 2.597 12.948 6.607 17.155zm29.783-24.451v.296H71.021v-.296c0-4.535 1.183-8.216 3.55-11.042 2.433-2.892 5.72-4.338 9.862-4.338 4.143 0 7.43 1.446 9.863 4.338 2.498 2.826 3.747 6.507 3.747 11.042z" fill="#61B584"/>
  <path d="M131.673 66.55c.723 1.642 1.94 2.464 3.649 2.464h4.241c1.709 0 2.926-.822 3.649-2.465l18.344-45.746.197-.986c0-.592-.23-1.085-.69-1.479-.395-.394-.855-.591-1.381-.591h-4.833c-.986 0-1.775.558-2.367 1.675l-14.99 38.846-14.991-38.846c-.526-1.117-1.348-1.675-2.466-1.675h-4.733c-.592 0-1.085.197-1.48.591-.394.394-.591.887-.591 1.479l.197.986 18.245 45.746z" fill="#61B584"/>
</svg>